<?xml version="1.0" encoding="UTF-8"?><svg id="Capa_1" xmlns="http://www.w3.org/2000/svg" viewBox="0 0 192.05 60"><polygon points="35.18 11.96 11.85 41.47 30.43 41.47 35.18 11.96 35.18 11.96" fill="#fff"/><polygon points="49.93 11.96 37.64 11.96 32.89 41.47 45.04 41.47 49.93 11.96" fill="#fff"/><path d="M68.38,11.96l-4.75,29.5c8.09-.08,15.71-6.65,17.05-14.75,1.35-8.14-4.16-14.75-12.3-14.75Z" fill="#fff"/><polygon points="53.62 11.96 48.73 41.47 61.02 41.47 61.02 41.47 61.17 41.47 65.92 11.96 53.62 11.96" fill="#fff"/><path d="M100.34,11.96c-8.15,0-15.85,6.61-17.2,14.75-1.35,8.12,4.13,14.71,12.24,14.75h0s.22.01.22.01l4.75-29.51h-.02Z" fill="#fff"/><path d="M102.82,11.96l-4.75,29.5c8.09-.08,15.7-6.65,17.04-14.75,1.35-8.14-4.15-14.74-12.28-14.75Z" fill="#fff"/><path d="M123.93,38.38h-1.39v3.03h-2.22v-9.19h3.61c2.03,0,3.18,1.44,3.18,3.07s-1.17,3.09-3.18,3.09ZM122.55,36.32h1.25c.73,0,1.09-.46,1.09-1.01s-.36-1.01-1.08-1.01h-1.27v2.02Z" fill="#fff"/><path d="M134.96,39.32v2.09h-6.31v-9.19h2.22v7.1h4.08Z" fill="#fff"/><path d="M149.07,34.31v7.1h-2.22v-7.1h-2.38v-2.09h6.99v2.09h-2.38Z" fill="#fff"/><path d="M155.2,32.22v9.19h-2.26v-9.19h2.26Z" fill="#fff"/><path d="M159.78,36.74v4.68h-2.22v-9.7l5.55,5.26v-4.74h2.22v9.71l-5.55-5.2Z" fill="#fff"/><path d="M171.78,32.09c2.67,0,4.78,2.09,4.78,4.72s-2.12,4.74-4.78,4.74-4.77-2.12-4.77-4.74,2.13-4.72,4.77-4.72ZM171.78,39.42c1.4,0,2.56-1.2,2.56-2.61s-1.16-2.59-2.56-2.59-2.55,1.17-2.55,2.59,1.15,2.61,2.55,2.61Z" fill="#fff"/><path d="M140.44,31.6l-4.57,9.81h2.25l1.12-2.4.63,1.34h2.42l.49,1.05h2.25l-4.57-9.81ZM140.44,36.42l.98,2.11h-1.97l.98-2.11Z" fill="#fff"/><path d="M178.72,31.25c-.82,0-1.48.66-1.48,1.48s.66,1.47,1.48,1.47,1.47-.66,1.47-1.47-.66-1.48-1.47-1.48ZM178.72,33.91c-.65,0-1.18-.53-1.18-1.18s.53-1.18,1.18-1.18,1.18.53,1.18,1.18-.53,1.18-1.18,1.18Z" fill="#fff"/><path d="M179.36,32.36c0-.34-.2-.49-.6-.49h-.65v1.72h.26v-.74h.3l.45.74h.29l-.48-.76c.25-.03.44-.17.44-.47ZM178.37,32.62v-.53h.35c.18,0,.37.04.37.25,0,.26-.2.28-.42.28h-.31Z" fill="#fff"/><path d="M13.16,49.31h-.73v1.28h-.42v-3.27h1.15c.68,0,1.05.46,1.05.99s-.38,1-1.05,1ZM12.43,48.93h.72c.4,0,.65-.24.65-.61s-.25-.62-.65-.62h-.72v1.23Z" fill="#fff"/><path d="M16.2,47.27c.94,0,1.71.75,1.71,1.68s-.76,1.68-1.71,1.68-1.7-.75-1.7-1.68.76-1.68,1.7-1.68ZM16.2,50.25c.71,0,1.29-.59,1.29-1.3s-.58-1.3-1.29-1.3-1.29.59-1.29,1.3.58,1.3,1.29,1.3Z" fill="#fff"/><path d="M18.91,48.9h.63c.4,0,.66-.29.66-.61s-.25-.59-.61-.59h-.71v2.89h-.42v-3.27h1.12c.61,0,1.02.43,1.02.97,0,.49-.41.92-.93.92l1.2,1.38h-.55l-1.41-1.69Z" fill="#fff"/><path d="M68.8,45.59h-2.2v5.01h2.2c1.38,0,2.51-1.12,2.51-2.51s-1.13-2.5-2.51-2.5M68.72,49.41h-.87v-2.62h.87c.71,0,1.37.5,1.37,1.31s-.66,1.31-1.37,1.31" fill="#fff"/><path d="M74.62,45.52c-1.43,0-2.59,1.16-2.59,2.59s1.16,2.58,2.59,2.58,2.58-1.16,2.58-2.58-1.16-2.59-2.58-2.59M74.62,49.44c-.74,0-1.34-.6-1.34-1.34s.6-1.34,1.34-1.34,1.34.6,1.34,1.34-.6,1.34-1.34,1.34" fill="#fff"/><path d="M60.65,50.61h1.19l.74-1.6.44.95h1.49l.3.65h1.19l-2.68-5.74-2.68,5.74ZM62.59,49.01l.74-1.6.74,1.6h-1.49Z" fill="#fff"/><rect x="43.17" y="45.59" width=".74" height="5.01" fill="#fff"/><polygon points="46.15 45.59 45.41 45.59 45.41 50.61 48.47 50.61 48.47 49.94 46.15 49.94 46.15 45.59" fill="#fff"/><polygon points="50.83 46.26 52.52 46.26 52.52 50.61 53.26 50.61 53.26 46.26 54.63 46.26 54.94 45.59 50.83 45.59 50.83 46.26" fill="#fff"/><rect x="49.3" y="45.59" width=".7" height="5.01" fill="#fff"/><path d="M41.3,47.94c.33-.24.46-.62.46-1.02,0-.75-.55-1.32-1.42-1.32h-2.15v5.01h2.45c.92,0,1.43-.6,1.43-1.4,0-.66-.39-1.11-.77-1.28M38.92,46.26h1.29c.51,0,.81.18.81.69,0,.42-.24.66-.75.66h-1.36v-1.35ZM40.51,49.94h-1.58v-1.66h1.52c.53,0,.9.36.9.87s-.32.79-.83.79" fill="#fff"/><polygon points="26.92 49.79 24.62 44.86 21.94 50.61 22.71 50.61 24.62 46.51 26.54 50.61 27.3 50.61 29.21 46.51 31.13 50.61 31.89 50.61 29.21 44.86 26.92 49.79" fill="#fff"/><path d="M34.66,45.52c-1.48,0-2.49,1.18-2.49,2.59s1.01,2.58,2.49,2.58,2.49-1.18,2.49-2.58-1.01-2.59-2.49-2.59M34.66,49.97c-1.11,0-1.77-.88-1.77-1.87s.67-1.87,1.77-1.87,1.77.88,1.77,1.87-.67,1.87-1.77,1.87" fill="#fff"/><path d="M58.25,45.59s-.93,1.99-1.27,2.73c-.35-.74-1.27-2.73-1.27-2.73h-.77s1.26,2.7,1.67,3.58v1.44h.74v-1.44c.41-.88,1.67-3.58,1.67-3.58h-.77Z" fill="#fff"/><polygon points="87.06 44.96 80.01 41.67 80.01 42.61 85.05 44.96 80.01 47.31 80.01 48.25 85.05 50.6 80.01 52.95 80.01 53.88 87.06 50.6 81.02 47.78 87.06 44.96" fill="#fff"/><polygon points="87.06 44.96 87.06 46.21 88.74 46.99 90.42 47.78 88.74 48.56 88.74 46.99 87.75 47.46 87.75 49.02 87.06 49.34 87.06 50.6 93.11 47.78 87.06 44.96" fill="#fff"/><path d="M92.47,49.55h.12c.07,0,.12-.05.12-.11s-.05-.11-.11-.11h-.13v.53h-.08v-.6h.21c.11,0,.19.08.19.18,0,.09-.07.17-.17.17l.22.25h-.1l-.26-.31Z" fill="#fff"/><path d="M92.6,50.06c-.28,0-.51-.23-.51-.51s.23-.51.51-.51.51.23.51.51-.23.51-.51.51ZM92.6,49.11c-.25,0-.45.2-.45.45s.2.45.45.45.45-.2.45-.45-.2-.45-.45-.45Z" fill="#fff"/></svg>