<?xml version="1.0" encoding="UTF-8"?><svg id="Capa_1" xmlns="http://www.w3.org/2000/svg" viewBox="0 0 213.13 60"><path d="M188.87,23.03h.13c.29,1.36.41,1.99.71,2.98l1.7,6.7h-4.97l1.7-6.7c.25-.99.41-1.61.74-2.98M193.38,40.61h4.68l-5.88-20.89h-6.38l-5.93,20.89h4.43l1.32-4.67h6.42s1.33,4.67,1.33,4.67ZM169.72,40.9c2.57,0,5.06-.62,6.67-1.28v-10.47h-7.21v3.35h2.94v4.67c-.54.33-1.45.54-2.44.54-3.07,0-4.02-1.53-4.02-5.96v-2.69c0-4.39.91-6.54,3.73-6.54,1.95,0,2.61,1.32,2.66,2.73h4.43c-.05-3.68-2.7-5.96-7.09-5.96-6.14,0-8.37,3.56-8.37,9.31v3.06c-.04,6.25,2.07,9.22,8.7,9.22M148.97,23.03h.13c.29,1.36.41,1.99.7,2.98l1.7,6.7h-4.98l1.7-6.7c.25-.99.41-1.61.75-2.98M153.48,40.61h4.68l-5.88-20.89h-6.38l-5.92,20.89h4.43l1.33-4.67h6.42s1.33,4.67,1.33,4.67ZM131.1,40.61h4.44v-20.89h-4.44v20.89ZM118.92,40.9c4.93,0,7.33-2.28,7.46-6.53h-4.47c-.08,2.07-.75,3.35-2.86,3.35-2.4,0-3.31-1.69-3.31-6.04v-3.06c0-4.39.91-6.04,3.31-6.04,2.24,0,2.61,1.49,2.69,3.06h4.47c-.04-3.64-2.11-6.25-7.29-6.25-5.76,0-7.87,3.6-7.87,9.23v3.06c0,5.67,2.11,9.22,7.87,9.22M88.92,40.61h3.94v-12.12c-.01-1.82-.07-3.64-.17-5.46h.13c.62,2.15.95,3.27,1.53,4.88l4.6,12.7h6.47v-20.89h-3.94v11.63c0,1.53.04,3.56.08,5.5h-.12c-.33-1.45-.62-2.9-1.49-5.25l-4.31-11.87h-6.75v20.89h.04ZM70.85,40.61h12.06v-3.35h-7.62v-5.79h6.92v-3.39h-6.92v-5.05h7.33v-3.35h-11.77s0,20.93,0,20.93ZM54.65,40.61h11.6v-3.35h-7.17v-17.54h-4.43s0,20.89,0,20.89ZM40.89,23.03h.13c.29,1.36.41,1.99.7,2.98l1.7,6.7h-4.97l1.7-6.7c.25-.99.41-1.61.74-2.98M45.41,40.61h4.68l-5.89-20.89h-6.38l-5.93,20.89h4.43l1.33-4.67h6.42s1.33,4.67,1.33,4.67ZM18.27,37.43v-6.08h2.69c2.28,0,3.35,1.03,3.35,3.06,0,2.23-1.41,3.06-3.44,3.06h-2.61v-.04ZM18.27,28.16v-5.25h2.78c2.03,0,2.9.91,2.9,2.61s-.99,2.65-2.86,2.65c0,0-2.82,0-2.82,0ZM13.84,40.61h7.83c4.39,0,7.09-1.57,7.09-5.92,0-2.77-1.62-4.67-4.6-4.97v-.12c2.65-.45,4.23-1.9,4.23-4.67,0-3.6-2.07-5.21-6.5-5.21h-8.08v20.89h.04s0,0,0,0Z" fill="#fff"/></svg>