<?xml version="1.0" encoding="UTF-8"?><svg id="Capa_1" xmlns="http://www.w3.org/2000/svg" viewBox="0 0 165.17 60"><path d="M40.54,31.19c.43.15.93.36,1.51.65,1.01.58,1.87,1.37,2.59,2.37.86,1.44,1.29,3.16,1.29,5.17,0,6.9-4.17,10.35-12.51,10.35h-16.17c-.43,0-.65-.22-.65-.65V15.88c0-.43.22-.65.65-.65h17.03c3.02,0,5.46.83,7.33,2.48,1.87,1.65,2.8,3.85,2.8,6.58,0,1.58-.36,2.98-1.08,4.2-.72,1.23-1.66,2.12-2.81,2.7ZM33.21,44.77c2.44,0,4.24-.39,5.39-1.18,1.15-.79,1.72-2.16,1.72-4.1s-.58-3.3-1.72-4.1c-1.15-.79-2.95-1.18-5.39-1.18h-10.13c-.58,0-.86.22-.86.65v9.27c0,.43.29.65.86.65h10.13ZM23.08,20.19c-.43,0-.65.22-.65.65v7.76c0,.43.22.65.65.65h9.92c3.74,0,5.6-1.51,5.6-4.53s-1.87-4.53-5.6-4.53h-9.92ZM75.47,31.19c.43.15.86.36,1.29.65,1.15.58,2.01,1.37,2.59,2.37,1.01,1.44,1.51,3.16,1.51,5.17,0,6.9-4.17,10.35-12.51,10.35h-16.17c-.43,0-.65-.22-.65-.65V15.88c0-.43.22-.65.65-.65h17.03c2.88,0,5.28.83,7.22,2.48,1.94,1.65,2.91,3.85,2.91,6.58,0,1.58-.36,2.98-1.08,4.2-.73,1.23-1.66,2.12-2.81,2.7ZM57.79,20.19c-.43,0-.65.22-.65.65v7.76c0,.43.22.65.65.65h10.13c3.74,0,5.6-1.51,5.6-4.53s-1.87-4.53-5.6-4.53h-10.13ZM68.14,44.77c2.44,0,4.24-.39,5.39-1.18,1.15-.79,1.72-2.16,1.72-4.1s-.58-3.3-1.72-4.1c-1.15-.79-2.95-1.18-5.39-1.18h-10.35c-.43,0-.65.22-.65.65v9.27c0,.43.22.65.65.65h10.35ZM111.69,15.66c.14-.29.29-.43.43-.43h5.6c.14,0,.29.07.43.22.14.15.14.29,0,.43l-17.89,33.64c-.15.15-.32.22-.54.22s-.4-.07-.54-.22l-17.89-33.64c-.15-.14-.18-.29-.11-.43.07-.14.25-.22.54-.22h5.39c.29,0,.5.15.65.43l11.43,21.56c0,.15.14.22.43.22s.5-.07.65-.22l11.43-21.56ZM118.16,44.34c-.15.29-.36.43-.65.43h-5.6c-.15,0-.25-.07-.32-.22-.07-.14-.11-.29-.11-.43l17.9-33.64c.14-.14.36-.22.65-.22s.5.07.65.22l17.89,33.64c0,.15-.04.29-.11.43-.07.15-.18.22-.32.22h-5.6c-.29,0-.51-.14-.65-.43l-11.21-21.56c-.15-.29-.36-.43-.65-.43s-.51.15-.65.43l-11.21,21.56Z" fill="#fff"/></svg>