<?xml version="1.0" encoding="UTF-8"?><svg id="Capa_1" xmlns="http://www.w3.org/2000/svg" viewBox="0 0 147.84 60"><path id="path5" d="M55.66,8.33h0c-1.02.02-1.65.49-2.28,1.87h0l-6.55,16.4.2.85s5.29,21.42,5.58,22.59h0c.3,1.24.87,1.79,2.27,1.81h.15c1.15-.2,1.55-.91,2.1-2.32h0c.34-.85,4.12-10.33,7.76-19.4h0c-2.29-9.05-4.47-17.71-4.64-18.4h0c-.49-1.94-2.55-3.39-4.57-3.39h-.02Z" fill="#fff"/><path id="path10" d="M92.94,8.15c-1,.02-1.62.49-2.24,1.86h0l-6.65,16.63.16.63s5.28,21.42,5.58,22.58h0c.31,1.26.9,1.81,2.35,1.81h.04c.05,0,.12,0,.2-.01h-.04c.76-.2,1.7-1.45,2.26-2.87h0c.33-.84,3.97-9.94,7.49-18.77h0c-2.29-9.08-4.49-17.77-4.66-18.48h0c-.48-1.91-2.48-3.31-4.47-3.37h-.02Z" fill="#fff"/><path id="path15" d="M130.16,7.96h0,0M130.15,7.96h0,0ZM116.4,8.03c-3.41.02-6.41,2.29-7.5,4.86h0s-3.36,8.42-6.83,17.11h0c-3.52,8.83-7.16,17.93-7.49,18.77h0c-.57,1.42-1.51,2.66-2.26,2.87h.04l13.29-.05c3.26-.02,6.06-1.93,7.39-4.67h0l14.84-37.1c.63-1.38,1.25-1.85,2.27-1.86h0l-13.76.07h0Z" fill="#fff"/><path id="path20" d="M89.07,8.17l-9.6.05h-.36c-3.37.06-6.32,2.32-7.4,4.87h0s-3.33,8.33-6.81,17.02h0c-3.63,9.07-7.42,18.56-7.76,19.41h0c-.55,1.41-.95,2.13-2.1,2.32h0s-.03.02-.05.02h0l13.48-.07c3.26-.02,6.04-1.93,7.38-4.67h0l8.19-20.48,6.65-16.63c.63-1.37,1.24-1.84,2.24-1.86h0l-3.86.02h0Z" fill="#fff"/><path id="path25" d="M41.85,8.41c-3.39.04-6.36,2.31-7.45,4.87h0s-13.91,34.76-14.56,36.43h0c-.56,1.43-.96,2.15-2.16,2.34h0l13.47-.07c3.26-.02,6.05-1.93,7.39-4.67h0l8.28-20.71,6.55-16.4c.63-1.38,1.25-1.85,2.28-1.86h0l-13.81.07h0Z" fill="#fff"/></svg>