<?xml version="1.0" encoding="UTF-8"?><svg id="Capa_1" xmlns="http://www.w3.org/2000/svg" viewBox="0 0 68.98 60"><path d="M63.29,30c0-15.84-12.96-28.8-28.8-28.8S5.69,14.16,5.69,30s12.96,28.8,28.8,28.8,28.8-12.96,28.8-28.8ZM34.49,54.12c6.39,0,12.51-2.52,17.01-7.02,1.46-1.46,2.7-3.06,3.71-4.78l-20.81-8.54-20.68,8.49c1.01,1.71,2.24,3.31,3.67,4.74,4.59,4.59,10.71,7.11,17.1,7.11ZM13.14,41.24c-1.8-3.43-2.77-7.28-2.77-11.24,0-6.39,2.52-12.51,7.11-16.92,4.28-4.28,10.03-6.77,16.08-7l-2.76,21.58-17.66,13.58ZM34.78,6.06c6.28.07,12.2,2.5,16.73,7.02,4.5,4.5,7.02,10.62,7.02,17.01,0,3.94-.93,7.75-2.72,11.17-3.03-2.41-17.26-13.69-17.26-13.69l-3.77-21.51Z" fill="#fff" fill-rule="evenodd"/></svg>