<?xml version="1.0" encoding="UTF-8"?><svg id="Capa_1" xmlns="http://www.w3.org/2000/svg" viewBox="0 0 182.87 60"><path d="M119.75,19.12h-5.68v13.92c-2.19,10.44-14.22,8.55-15.05,0l-.08-14.07h-6.2l.07,13.54c.46,11.88,24.13,14.6,26.93,1.29v-14.68h0ZM13.15,41.82h5.98v-13.85c.3-9.76,15.21-9.53,14.75.68v13.39h6.28v-13.92c-2.87-13.01-23.3-13.01-26.93-1.59l-.08,15.28ZM65.12,42.28h5.9v-13.17c-.98-16.57-34.5-12.94-24.97,8.17,3.56,5.75,12.41,6.88,17.48,3.33v-2.19c-5.37,1.21-9.38,2.5-12.33-3.86-5.22-15.21,14.07-18.38,13.77-5.37l.15,13.09ZM159.62,43.18h5.9v-13.16c-.98-16.57-34.5-12.94-24.97,8.17,3.56,5.75,12.41,6.81,17.48,3.33v-2.19c-5.37,1.21-9.38,2.5-12.33-3.86-5.22-15.21,14.07-18.38,13.77-5.37l.15,13.09ZM138.43,19.43v2.04c-4.54-.38-6.96,1.51-7.26,5.67l-.38,15.59h-5.52v-15.81c1.51-6.81,6.51-9.08,13.16-7.49h0ZM82.83,18.75h5.52l-.15,3.94h-5.07v15.74c.3,4.24,2.87,5.45,6.43,5.22v2.12c-6.81.83-11.8-.91-12.86-8.47V8.53h6.13v10.21h0Z" fill="#fff" fill-rule="evenodd"/></svg>