<?xml version="1.0" encoding="UTF-8"?><svg id="Capa_1" xmlns="http://www.w3.org/2000/svg" viewBox="0 0 124.01 60"><path d="M22.56,48.02c-3.02-.12-5.48-.95-7.41-2.48-.37-.29-1.25-1.17-1.54-1.54-.78-.98-1.31-1.94-1.67-3-1.09-3.27-.53-7.56,1.61-12.27,1.83-4.03,4.65-8.03,9.58-13.57.73-.81,2.89-3.2,2.9-3.2,0,0-.11.2-.26.45-1.28,2.15-2.38,4.67-2.97,6.86-.96,3.51-.84,6.52.34,8.86.82,1.61,2.21,3,3.79,3.77,2.75,1.35,6.78,1.46,11.7.33.34-.08,17.13-4.54,37.31-9.9,20.18-5.37,36.69-9.76,36.7-9.75,0,0-46.88,20.07-71.23,30.48-3.85,1.65-4.89,2.06-6.7,2.7-4.63,1.63-8.78,2.4-12.14,2.27h0Z" fill="#fff"/></svg>