<?xml version="1.0" encoding="UTF-8"?><svg id="Capa_1" xmlns="http://www.w3.org/2000/svg" viewBox="0 0 168.35 60"><g id="_4nGToy.tif"><path d="M52.59,12.07l-.95,11.2,3.85-11.2h4.29l-8.7,24.29h-6.05l.95-11.2-4.16,11.2h-4.22l9.01-24.29h5.99ZM46.76,12.41l-8.63,23.54.4.15,8.63-23.54-.4-.15ZM56.11,12.45l-.44.38-4.26,11.98-.08,1.23,4.79-13.59ZM45.77,35.98l1.14-13.47-.49,1.33c-.27,4.05-.7,8.09-1.02,12.14h.37Z" fill="#fff"/><path d="M88.77,12.07l-2.77,7.17,5.23-7.17h5.61l-8.8,12.05.23,12.24h-5.55l.06-8.43-2.9,8.43h-5.61l8.89-24.29h5.61ZM83.33,12.41l-8.6,23.55.4.15,8.6-23.55-.4-.15ZM91.67,12.45c-.14-.14-.59.4-.68.51-1.99,2.4-3.62,5.42-5.62,7.86l-.25.82,6.55-9.19ZM83.47,35.98l.06-10.32c-.56,1.53-.27,3.34-.31,4.98,0,.33-.13.64-.14,1-.03,1.45.03,2.9,0,4.35h.38Z" fill="#fff"/><path d="M99.99,36.36l9.01-24.3c4.33.34,11.8-1.77,9.9,5.36-.31,1.18-.93,2.87-1.42,4-.7,1.6-1.63,2.84-3.37,3.37.58,1.1.89,1.91.74,3.19l-2.76,8.38h-5.3l2.87-8.65c.05-.56.22-1.41-.54-1.42l-3.72,10.08h-5.42ZM109.44,12.45l-.39.07-8.44,23.46c.25.05.3-.12.4-.29.25-.42.5-1.31.7-1.82,2.56-6.7,5.16-13.7,7.47-20.48.06-.16.33-.87.25-.95ZM114.2,16.13c-.18-.18-.7-.31-.97-.29.02.21.31.13.52.3.5.42.3.94.17,1.46-.21.85-1.46,4.48-2.01,4.91-.26.2-.58.16-.7.37.83.04,1.36-.57,1.7-1.26s1.45-3.7,1.55-4.37c.05-.35,0-.88-.26-1.13ZM110.45,22.51c1,.15,1.42-.5,1.79-1.3.3-.65,1.42-3.64,1.46-4.21.04-.62-.75-1.08-1.1-.58l-2.15,6.09ZM107.3,35.98l.48-.21c.62-2.58,2.07-5.26,2.63-7.82.21-.97.34-1.78-.79-2.16l.54,1.1-.13.94-2.74,8.15Z" fill="#fff"/><path d="M76.54,25.54l-2.92,7.85c-.84,1.66-2.04,2.66-3.89,3.04-2.73.57-8.23.79-7.95-3.27,1.84-5.51,3.59-11.2,5.83-16.58,1.48-3.56,2.76-4.52,6.71-4.75,2.27-.13,4.69.15,6.87.76l-3.53,9.94h-5.42l2.14-5.99c.03-.69-.77-.65-1.12-.22l-5.92,16c-.13.76.68.7,1.12.32l2.64-7.09h5.42ZM72.13,12.57c-2.61.27-3.54,2.64-4.38,4.75-1.74,4.34-3.91,9.88-5.21,14.31-.58,1.97-.62,3.68,1.67,4.39.13.04.61.23.61-.04-2.89-.6-2.33-2.83-1.64-4.98,1.45-4.52,3.52-10.54,5.44-14.83.52-1.16,1.12-2.36,2.26-3.03l1.25-.58ZM72.88,22.14c.28.05.34-.18.44-.38.39-.77,1.67-4.22,1.8-5,.1-.59.06-.95-.56-1.14-.12-.04-.33-.1-.29.1.47.08.54.5.48.91-.2,1.37-1.37,3.46-1.78,4.9-.06.2-.11.39-.09.61ZM71.75,25.91l-.38.08c-.82,1.94-1.35,4.28-2.24,6.17-.26.55-.42.79-.9,1.17.51-.03.92-.37,1.16-.79.7-1.22,1.62-4.22,2.12-5.69.06-.16.33-.87.25-.95Z" fill="#fff"/><path d="M41.99,20.25h-5.42c.03-.75,1.42-3.42,1.25-3.95-.11-.34-.92-.25-1.13,0-.17.21-1.01,2.46-1.07,2.8-.39,2.12,1.01,2.68,2.15,4.03,1.87,2.21,1.62,4.02.85,6.64-.88,3-2.09,5.97-5.45,6.64-2.97.6-6.14.11-9.08-.45l2.9-8.18h5.42c-.12.92-1.85,4.15-1.62,4.82.19.58.91.22,1.17-.18.28-.42,1.31-3.12,1.4-3.63.49-2.66-2.91-3.63-3.54-6.17s1.51-8,3.54-9.57c2.2-1.71,7.55-1.48,10.17-.84.23.06.95.18,1.06.33l-2.59,7.68ZM35.56,12.57c-2.67.29-3.91,3.2-4.7,5.44-.62,1.78-1.24,3.62-.29,5.39.66,1.22,3.02,2.91,3.21,4.09.26,1.64-.92,3.57-1.44,5.09l-.7.75c.5.03.92-.39,1.16-.79.38-.65,1.5-3.86,1.48-4.54-.07-2.12-3.5-3.49-3.77-5.93-.23-2.12,1.59-7.2,3.29-8.55l1.75-.95ZM37.08,19.87c.13.13.36-.04.48-.22.19-.31.94-2.39,1-2.77.1-.62.11-1.06-.56-1.27-.12-.04-.33-.1-.29.1.56.1.55.71.47,1.17s-1.22,2.88-1.1,2.99ZM27.33,28.07l-2.79,7.64.41.15,2.79-7.64-.41-.15Z" fill="#fff"/><path d="M121.8,27.8c.19.17-1.78,4.16-1.62,4.82.39.58.94.21,1.23-.25.48-.75,1.49-3.65,1.41-4.51-.17-1.83-3.28-3.08-3.62-5.44-.4-2.73,1.69-8.45,4.25-9.79,2.74-1.44,7.8-.88,10.72-.06l-2.77,7.68h-5.42c.04-.81,1.45-3.34,1.25-3.95-.16-.48-.97-.18-1.23.25-.41.68-1.14,2.99-1.02,3.75.24,1.5,2.96,2.99,3.48,5.08.64,2.53-1.44,8.66-3.63,10.15-2.81,1.92-8.16.98-11.34.45l2.9-8.18h5.42ZM124.95,12.57c-2.39.26-3.54,2.53-4.35,4.53-.62,1.54-1.26,3.42-1.07,5.1.25,2.24,3.67,3.75,3.73,5.81.02.79-1.21,4.26-1.71,4.89-.17.22-.44.22-.51.44.49.03.93-.39,1.16-.79.4-.71,1.51-3.81,1.49-4.55-.05-2.02-3.48-3.5-3.77-5.93-.24-2.02,1.57-6.95,3.08-8.35l1.95-1.13ZM126.59,19.87c.25.05.3-.11.4-.29.18-.32,1.02-2.65,1.05-2.98.05-.52-.26-.93-.77-1.01-.49-.08.25.3.3.46.29.93-1.24,3.52-.98,3.81ZM116.76,28.04l-2.82,7.56.43.16,2.82-7.56-.43-.16Z" fill="#fff"/><path d="M107.68,12.07l-1.64,4.09-4.23.19-1.95,5.67h3.15l-1.4,4.14-3.37.03-2.16,6.15h4.16l-1.39,4.03h-9.96l8.89-24.29h9.9ZM97.96,12.41l-8.6,23.55.4.15,8.6-23.55-.4-.15Z" fill="#fff"/><path d="M67.59,12.07l-8.89,24.29h-5.86l8.83-24.29h5.93ZM61.97,12.33l-8.61,23.61.4.14,8.61-23.61-.4-.14Z" fill="#fff"/><path d="M131.68,40.2c-.11,0-.19.01-.24.02v.53h.2c.24,0,.43-.08.43-.27,0-.17-.12-.28-.39-.28Z" fill="#fff"/><path d="M131.73,39.35c-.82,0-1.43.66-1.43,1.47s.61,1.47,1.44,1.47,1.41-.65,1.41-1.46-.6-1.48-1.42-1.48ZM132.17,41.8c-.06-.07-.09-.24-.15-.45-.03-.2-.15-.29-.38-.29h-.2v.74h-.43v-1.84c.17-.03.4-.06.71-.06.35,0,.51.06.64.14.1.08.18.22.18.4,0,.2-.16.36-.38.43v.02c.18.07.28.2.34.45.06.28.09.39.14.46h-.46Z" fill="#fff"/><path d="M143.49,6.34l-.32-.18H37.26c-7.2.39-9.74,4.41-12.04,10.5-3.18,8.48-5.98,17.11-9.18,25.58l11.2,11.62h103.89c.8-.18,1.63-.22,2.44-.39,4.84-1.05,7.22-4.39,8.91-8.73,3.14-8.08,5.86-16.5,8.82-24.67.27-.74.52-1.51.88-2.2v-.25l-8.7-11.27ZM131.73,42.7c-1.06,0-1.9-.82-1.9-1.87s.84-1.84,1.9-1.84,1.89.82,1.89,1.84-.82,1.87-1.89,1.87ZM138.19,10.75c-2.32,6.75-4.77,13.72-7.31,20.39-1,2.62-1.83,5.04-4.37,6.58-.79.48-2.88,1.28-3.76,1.28H20.69l9.06-24.88c1.15-2.44,4.43-4.7,7.14-4.7h101.68c.08.08-.31,1.13-.38,1.32Z" fill="#fff"/></g></svg>