<?xml version="1.0" encoding="UTF-8"?><svg id="Capa_1" xmlns="http://www.w3.org/2000/svg" viewBox="0 0 74.59 60"><path d="M36.65,58l7.83-44.01c7.46,0,9.81.82,10.15,4.16,0,0,5-1.87,7.53-5.66-9.85-4.56-19.75-4.77-19.75-4.77l-5.77,7.03h.01s-5.77-7.03-5.77-7.03c0,0-9.9.21-19.74,4.77,2.52,3.79,7.53,5.66,7.53,5.66.34-3.34,2.69-4.16,10.1-4.16l7.89,44.02" fill="#fff"/><path d="M36.65,5.69c7.96-.06,17.07,1.23,26.4,5.3,1.25-2.24,1.57-3.24,1.57-3.24-10.2-4.03-19.75-5.42-27.97-5.45-8.22.03-17.77,1.42-27.97,5.45,0,0,.45,1.22,1.57,3.24,9.33-4.07,18.44-5.36,26.4-5.3h0" fill="#fff"/></svg>