<?xml version="1.0" encoding="UTF-8"?><svg id="Capa_1" xmlns="http://www.w3.org/2000/svg" viewBox="0 0 164.19 60"><path d="M136.19,17.13h13.18v2.1c-.38-.13-.78-.19-1.19-.2h-7.57v9.81h7.37c.53,0,1-.06,1.39-.16v2.09c-.33-.08-.79-.12-1.36-.12h-7.4v10.14h7.35c.4,0,.88-.06,1.41-.19v2.26h-13.16c.1-.37.16-.78.16-1.22v-23.28c0-.51-.06-.93-.18-1.25h0ZM133.14,23.81l-3.81-.03c-.19-2.14-1.41-4.21-4.11-4.59-5.78-.52-7.41,5.83-7.26,10.47.15,4.47.86,11.35,6.83,11.35,2.5,0,4.9-2.57,4.83-4.74l3.52-.03c-.26,4.47-5.39,7.06-7.83,7.15-8.35.28-11.84-5.28-12.02-13.22-.16-7.19,2.79-13.58,11.04-13.58,7.07.1,8.43,4.28,8.81,7.21h0ZM73.77,39.95l2.52-2.11c1.31,2.17,2.39,3.16,5,3.16s4.88-1.61,4.88-4.45c0-1.4-.57-2.55-1.7-3.41-.51-.4-1.81-1.1-3.85-2.07-3.05-1.46-6.02-3.37-6.02-7.19,0-4.83,4.1-6.96,8.43-7.11,2.56-.1,5.74,1.32,7.03,2.9l-2.56,1.97c-.93-1.74-2.74-2.82-4.71-2.82-3.27,0-5.86,3.79-3.15,6.4.69.67,2.09,1.49,4.23,2.47,3.41,1.6,6.33,3.51,6.33,7.74,0,1.46-.38,2.82-1.14,4.07-1.52,2.51-4.06,3.77-7.61,3.77-4.08,0-4.89-.93-7.67-3.31h0ZM37.84,17.13h13.17v2.1c-.38-.13-.78-.19-1.19-.2h-7.57v9.81h7.37c.53,0,1-.06,1.39-.16v2.09c-.33-.08-.79-.12-1.35-.12h-7.41v10.14h7.35c.4,0,.88-.06,1.41-.19v2.26h-13.15c.09-.37.15-.78.15-1.22v-23.28c0-.51-.06-.93-.17-1.25h0ZM14.82,17.13h4.79v.24c0,.22.07.5.19.86l6.75,20.32,6.93-20.41c.11-.34.17-.68.17-1.01h2.32c-.24.41-.41.78-.52,1.1l-7.91,23.6c-.08.22-.15.58-.21,1.05h-3.92c-.06-.36-.15-.71-.26-1.05l-7.75-23.41c-.09-.22-.27-.66-.56-1.29h-.01ZM65.67,30.55c3.14-.62,5.54-3.02,5.54-6.46,0-4.5-3.77-6.97-7.99-6.97h-7.71c.11.39.17.8.17,1.24v23.27c0,.5-.06.92-.17,1.24h4.59c-.11-.4-.17-.82-.17-1.24v-10.69l1.47.16,7.69,11.77h4.62l-8.05-12.32h0ZM64.87,28.59c-.83.59-1.83.88-2.98.88h-1.96v-10.47h1.76c1.5,0,2.67.37,3.5,1.12,1.14,1.03,1.72,2.42,1.72,4.17,0,1.88-.68,3.32-2.03,4.3h0ZM112.53,41.8l-8.57-23.82c-.1-.28-.15-.56-.17-.85h-3.71c0,.3-.05.63-.17.95l-8.31,23.72c-.11.34-.28.7-.52,1.07h2.39c-.01-.36.04-.72.15-1.07l2.46-7h9.47l2.43,7c.13.38.19.73.19,1.07h4.96c-.28-.4-.49-.77-.61-1.07h0ZM96.73,32.91l4-11.63,4.11,11.63h-8.11Z" fill="#fff" fill-rule="evenodd"/></svg>