<?xml version="1.0" encoding="UTF-8"?><svg id="Capa_1" xmlns="http://www.w3.org/2000/svg" viewBox="0 0 212.61 60"><path d="M175.8,24c1.04,0,1.9-.54,2.01-1.24l1.03-11.62c0-1.15-1.35-2.09-3.04-2.09s-3.03.94-3.03,2.09l1.03,11.62c.11.7.97,1.24,2.01,1.24h0M169.52,27.63c.52-.9.48-1.91-.07-2.36l-9.55-6.7c-.99-.57-2.48.12-3.33,1.58-.85,1.46-.7,3.1.29,3.67l10.57,4.92c.66.24,1.56-.23,2.08-1.13h0M182.08,27.62c.52.9,1.42,1.37,2.08,1.13l10.57-4.92c1-.57,1.14-2.21.3-3.67-.85-1.46-2.34-2.16-3.33-1.58l-9.55,6.7c-.55.45-.59,1.46-.07,2.36h0M175.8,38.51c1.04,0,1.9.54,2.01,1.24l1.03,11.61c0,1.15-1.35,2.09-3.04,2.09s-3.03-.94-3.03-2.09l1.03-11.61c.11-.7.97-1.24,2.01-1.24h0M182.08,34.88c.52-.9,1.42-1.37,2.08-1.12l10.57,4.92c1,.58,1.14,2.21.3,3.68-.85,1.46-2.34,2.15-3.33,1.58l-9.55-6.69c-.55-.45-.59-1.47-.07-2.36h0M169.52,34.88c.52.9.48,1.91-.07,2.36l-9.55,6.69c-.99.57-2.48-.12-3.33-1.58-.85-1.46-.7-3.1.29-3.68l10.57-4.92c.66-.25,1.56.22,2.08,1.12h0" fill="#fff"/><path d="M115.58,37.22c0,.36-.03.72-.13,1.05-.4,1.34-1.79,2.48-3.53,2.48-1.45,0-2.6-.82-2.6-2.56,0-2.66,2.93-3.39,6.26-3.38v2.41s0,0,0,0ZM120.8,32.59c0-4.39-1.87-8.24-8.21-8.24-3.25,0-5.83.91-7.24,1.73l1.03,3.53c1.29-.81,3.34-1.48,5.28-1.48,3.21,0,3.74,1.82,3.74,2.99v.28c-7-.01-11.43,2.41-11.43,7.35,0,3.02,2.25,5.84,6.17,5.84,2.41,0,4.42-.96,5.63-2.5h.12s.8,3.35,5.21,2.07c-.23-1.39-.31-2.88-.31-4.66v-6.89M11.72,18.37s4.58,18.75,5.31,21.79c.85,3.55,2.39,4.86,6.81,3.98l2.86-11.62c.72-2.89,1.21-4.95,1.68-7.88h.08c.33,2.97.79,5,1.39,7.89,0,0,1.16,5.28,1.76,8.05.6,2.77,2.26,4.52,6.59,3.57l6.81-25.77h-5.49l-2.32,11.14c-.63,3.24-1.19,5.78-1.63,8.74h-.08c-.4-2.94-.9-5.37-1.54-8.53l-2.42-11.35h-5.73l-2.59,11.07c-.73,3.36-1.42,6.08-1.85,8.94h-.08c-.45-2.7-1.04-6.11-1.69-9.37,0,0-1.54-7.92-2.08-10.64h-5.79M55.39,37.22c0,.36-.03.72-.13,1.05-.4,1.34-1.79,2.48-3.53,2.48-1.45,0-2.6-.82-2.6-2.56,0-2.66,2.93-3.39,6.26-3.38v2.41s0,0,0,0ZM60.62,32.59c0-4.39-1.87-8.24-8.2-8.24-3.25,0-5.83.91-7.24,1.73l1.03,3.53c1.29-.81,3.34-1.48,5.28-1.48,3.21,0,3.74,1.82,3.74,2.99v.28c-7-.01-11.43,2.41-11.43,7.35,0,3.02,2.25,5.84,6.17,5.84,2.41,0,4.43-.96,5.63-2.5h.12s.8,3.35,5.21,2.07c-.23-1.39-.31-2.88-.31-4.66v-6.89M69.34,38.66v-20.3h-5.23v25.77h5.23v-5.47M137.8,18.37v19.01c0,2.62.49,4.46,1.55,5.58.92.98,2.44,1.62,4.26,1.62,1.55,0,3.07-.3,3.79-.56l-.07-4.09c-.53.13-1.15.24-1.99.24-1.78,0-2.38-1.14-2.38-3.49v-7.27h4.56v-4.93h-4.56v-6.09h-5.16M124.29,24.78v19.36h5.4v-9.91c0-.54.03-1,.12-1.43.4-2.08,1.99-3.4,4.27-3.4.63,0,1.07.07,1.56.14v-5.07c-.41-.08-.68-.12-1.19-.12-2.01,0-4.31,1.3-5.27,4.09h-.15v-3.65h-4.74M73.01,24.78v19.36h5.26v-11.35c0-.53.06-1.1.25-1.58.44-1.14,1.5-2.48,3.2-2.48,2.12,0,3.11,1.79,3.11,4.38v11.03h5.26v-11.49c0-.51.07-1.12.22-1.57.43-1.3,1.58-2.36,3.16-2.36,2.15,0,3.18,1.76,3.18,4.81v10.6h5.26v-11.4c0-6.01-3.05-8.39-6.5-8.39-1.52,0-2.73.38-3.82,1.05-.92.56-1.74,1.36-2.45,2.41h-.08c-.83-2.09-2.79-3.46-5.33-3.46-3.27,0-4.74,1.66-5.64,3.07h-.08v-2.63h-4.99" fill="#fff"/></svg>